<?xml version="1.0" encoding="UTF-8"?>
<svg width="32px" height="32px" viewBox="0 0 32 32" version="1.1" xmlns="http://www.w3.org/2000/svg" xmlns:xlink="http://www.w3.org/1999/xlink">
    <title>Favicon</title>
    <defs>
        <linearGradient x1="100%" y1="0%" x2="0%" y2="100%" id="linearGradient-1">
            <stop stop-color="#E879F9" offset="0%"></stop>
            <stop stop-color="#818CF8" offset="100%"></stop>
        </linearGradient>
    </defs>
    <g id="Page-1" stroke="none" stroke-width="1" fill="none" fill-rule="evenodd">
        <g id="Favicon" transform="translate(0, -0)" fill="url(#linearGradient-1)">
            <path d="M7.95636364,6.94836364 C8.21589818,6.78615273 8.47463273,6.64752 8.72734545,6.52897455 C8.73223273,6.17649455 8.77800727,5.82363636 8.84386909,5.47783273 C8.95566545,4.89092364 9.18155636,4.09146182 9.64619636,3.27834182 C10.6299345,1.5568 12.5638982,0 16,0 C19.4360727,0 21.3700364,1.5568 22.3537455,3.27834182 C22.8184727,4.09146182 23.0443636,4.89092364 23.1560727,5.47783273 C23.2219636,5.82350545 23.2677818,6.17621818 23.2725818,6.52856727 C23.5253818,6.64711273 23.7841455,6.78615273 24.0436364,6.94836364 C25.0283636,7.56381091 25.9527273,8.47392 26.6173091,9.77348364 C27.2954182,9.50157091 27.9682909,9.06181818 28.4260364,8.37498182 C28.7950545,7.82152727 29.0909091,7.01821091 29.0909091,5.81818182 C29.0909091,5.01486545 29.7421091,4.36363636 30.5454545,4.36363636 C31.3488,4.36363636 32,5.01486545 32,5.81818182 C32,7.52724364 31.5685818,8.90574545 30.8466909,9.98865455 C29.9165091,11.38384 28.6190545,12.1373673 27.4896,12.5545455 C27.5848727,13.1655273 27.6363636,13.8279273 27.6363636,14.5454545 L27.6363636,16 L30.5454545,16 C31.3488,16 32,16.6512 32,17.4545455 C32,18.2578909 31.3488,18.9090909 30.5454545,18.9090909 L27.6363636,18.9090909 L27.6363636,21.1186909 C27.6205091,21.5344 27.5633455,21.9461818 27.4932364,22.3559273 C28.6216727,22.7732364 29.9175273,23.5266909 30.8466909,24.9204364 C31.5685818,26.0033455 32,27.3818182 32,29.0909091 C32,29.8942545 31.3488,30.5454545 30.5454545,30.5454545 C29.7421091,30.5454545 29.0909091,29.8942545 29.0909091,29.0909091 C29.0909091,27.8909091 28.7950545,27.0875636 28.4260364,26.5341091 C27.9856,25.8733091 27.3480727,25.4417455 26.6944,25.1672727 C26.5146182,25.6098909 26.3002182,26.0673455 26.0440727,26.5265455 C24.5015273,29.2933818 21.5005091,32 16,32 C10.4994909,32 7.49853091,29.2933818 5.95585455,26.5265455 C5.69984,26.0673455 5.48535273,25.6098909 5.3056,25.1672727 C4.65197091,25.4417455 4.01442909,25.8733091 3.57389091,26.5341091 C3.20491636,27.0875636 2.90909091,27.8909091 2.90909091,29.0909091 C2.90909091,29.8942545 2.25786182,30.5454545 1.45454545,30.5454545 C0.651229091,30.5454545 0,29.8942545 0,29.0909091 C0,27.3818182 0.431447273,26.0033455 1.15338182,24.9204364 C2.08251636,23.5266909 3.37825455,22.7732364 4.50674909,22.3559273 C4.43671273,21.9469091 4.38210909,21.5335273 4.36363636,21.1186909 L4.36363636,18.9090909 L1.45454545,18.9090909 C0.651229091,18.9090909 0,18.2578909 0,17.4545455 C0,16.6512 0.651229091,16 1.45454545,16 L4.36363636,16 L4.36363636,14.5454545 C4.36363636,13.8279273 4.41512727,13.1655273 4.51034182,12.5545455 C3.38094545,12.1373673 2.08350545,11.38384 1.15338182,9.98865455 C0.431447273,8.90574545 0,7.52724364 0,5.81818182 C0,5.01486545 0.651229091,4.36363636 1.45454545,4.36363636 C2.25786182,4.36363636 2.90909091,5.01486545 2.90909091,5.81818182 C2.90909091,7.01821091 3.20491636,7.82152727 3.57389091,8.37498182 C4.03178182,9.06181818 4.70458182,9.50157091 5.38273455,9.77348364 C6.04724364,8.47392 6.97166545,7.56381091 7.95636364,6.94836364 Z M11.6315782,8.72778182 C10.8872,8.75880727 10.1251782,9.02338909 9.49818182,9.41527273 C8.49882182,10.0398691 7.27272727,11.3742982 7.27272727,14.5454545 L7.27272727,21.0528 C7.36781091,22.4587636 7.81355636,23.8846545 8.49671273,25.1098182 C9.4592,26.8360727 11.19472,28.6091636 14.5454545,29.008 L14.5454545,11.6411491 C14.5454545,10.0321408 13.2410955,8.72778177 11.6320872,8.72778177 C11.6319175,8.72778177 11.6317478,8.72778179 11.6315782,8.72778182 L11.6315782,8.72778182 L11.6315782,8.72778182 Z M17.4545455,11.6411637 L17.4545455,29.008 L17.4545455,29.008 C20.8052364,28.6091636 22.5408,26.8360727 23.5032727,25.1098182 C24.1864727,23.8845091 24.6321455,22.4587636 24.7272727,21.0528 L24.7272727,14.5454545 C24.7272727,11.3742982 23.5012364,10.0398691 22.5018182,9.41527273 C21.8747636,9.02338909 21.1127273,8.75880727 20.3684364,8.72778182 C18.75942,8.7275007 17.4548266,10.0316383 17.4545455,11.6406547 C17.4545455,11.6408243 17.4545455,11.640994 17.4545455,11.6411637 Z" id="Shape"></path>
        </g>
    </g>
</svg>
