<?xml version="1.0" encoding="UTF-8"?>
<svg width="512px" height="512px" viewBox="0 0 512 512" version="1.1" xmlns="http://www.w3.org/2000/svg" xmlns:xlink="http://www.w3.org/1999/xlink">
    <title>Icon</title>
    <defs>
        <linearGradient x1="100%" y1="0%" x2="0%" y2="100%" id="linearGradient-1">
            <stop stop-color="#E879F9" offset="0%"></stop>
            <stop stop-color="#818CF8" offset="100%"></stop>
        </linearGradient>
    </defs>
    <g id="Page-1" stroke="none" stroke-width="1" fill="none" fill-rule="evenodd">
        <g id="Icon">
            <polygon id="Rectangle" fill="url(#linearGradient-1)" points="0 0 512 0 512 512 0 512"></polygon>
            <path d="M155.454545,142.854545 C158.698727,140.826909 161.932909,139.094 165.091818,137.612182 C165.152909,133.206182 165.725091,128.795455 166.548364,124.472909 C167.945818,117.136545 170.769455,107.143273 176.577455,96.9792727 C188.874182,75.46 213.048727,56 256,56 C298.950909,56 323.125455,75.46 335.421818,96.9792727 C341.230909,107.143273 344.054545,117.136545 345.450909,124.472909 C346.274545,128.793818 346.847273,133.202727 346.907273,137.607091 C350.067273,139.088909 353.301818,140.826909 356.545455,142.854545 C368.854545,150.547636 380.409091,161.924 388.716364,178.168545 C397.192727,174.769636 405.603636,169.272727 411.325455,160.687273 C415.938182,153.769091 419.636364,143.727636 419.636364,128.727273 C419.636364,118.685818 427.776364,110.545455 437.818182,110.545455 C447.86,110.545455 456,118.685818 456,128.727273 C456,150.090545 450.607273,167.321818 441.583636,180.858182 C429.956364,198.298 413.738182,207.717091 399.62,212.931818 C400.810909,220.569091 401.454545,228.849091 401.454545,237.818182 L401.454545,256 L437.818182,256 C447.86,256 456,264.14 456,274.181818 C456,284.223636 447.86,292.363636 437.818182,292.363636 L401.454545,292.363636 L401.454545,319.983636 C401.256364,325.18 400.541818,330.327273 399.665455,335.449091 C413.770909,340.665455 429.969091,350.083636 441.583636,367.505455 C450.607273,381.041818 456,398.272727 456,419.636364 C456,429.678182 447.86,437.818182 437.818182,437.818182 C427.776364,437.818182 419.636364,429.678182 419.636364,419.636364 C419.636364,404.636364 415.938182,394.594545 411.325455,387.676364 C405.82,379.416364 397.850909,374.021818 389.68,370.590909 C387.432727,376.123636 384.752727,381.841818 381.550909,387.581818 C362.269091,422.167273 324.756364,456 256,456 C187.243636,456 149.731636,422.167273 130.448182,387.581818 C127.248,381.841818 124.566909,376.123636 122.32,370.590909 C114.149636,374.021818 106.180364,379.416364 100.673636,387.676364 C96.0614545,394.594545 92.3636364,404.636364 92.3636364,419.636364 C92.3636364,429.678182 84.2232727,437.818182 74.1818182,437.818182 C64.1403636,437.818182 56,429.678182 56,419.636364 C56,398.272727 61.3930909,381.041818 70.4172727,367.505455 C82.0314545,350.083636 98.2281818,340.665455 112.334364,335.449091 C111.458909,330.336364 110.776364,325.169091 110.545455,319.983636 L110.545455,292.363636 L74.1818182,292.363636 C64.1403636,292.363636 56,284.223636 56,274.181818 C56,264.14 64.1403636,256 74.1818182,256 L110.545455,256 L110.545455,237.818182 C110.545455,228.849091 111.189091,220.569091 112.379273,212.931818 C98.2618182,207.717091 82.0438182,198.298 70.4172727,180.858182 C61.3930909,167.321818 56,150.090545 56,128.727273 C56,118.685818 64.1403636,110.545455 74.1818182,110.545455 C84.2232727,110.545455 92.3636364,118.685818 92.3636364,128.727273 C92.3636364,143.727636 96.0614545,153.769091 100.673636,160.687273 C106.397273,169.272727 114.807273,174.769636 123.284182,178.168545 C131.590545,161.924 143.145818,150.547636 155.454545,142.854545 Z M201.394727,165.097273 C192.09,165.485091 182.564727,168.792364 174.727273,173.690909 C162.235273,181.498364 146.909091,198.178727 146.909091,237.818182 L146.909091,319.16 C148.097636,336.734545 153.669455,354.558182 162.208909,369.872727 C174.24,391.450909 195.934,413.614545 237.818182,418.6 L237.818182,201.514364 C237.818182,181.40176 221.513694,165.097272 201.40109,165.097272 C201.398969,165.097272 201.396848,165.097272 201.394727,165.097273 L201.394727,165.097273 L201.394727,165.097273 Z M274.181818,201.514546 L274.181818,418.6 L274.181818,418.6 C316.065455,413.614545 337.76,391.450909 349.790909,369.872727 C358.330909,354.556364 363.901818,336.734545 365.090909,319.16 L365.090909,237.818182 C365.090909,198.178727 349.765455,181.498364 337.272727,173.690909 C329.434545,168.792364 319.909091,165.485091 310.605455,165.097273 C290.49275,165.093759 274.185333,181.395479 274.181819,201.508183 C274.181818,201.510304 274.181818,201.512425 274.181818,201.514546 Z" id="Shape" fill="#FAFAFA"></path>
        </g>
    </g>
</svg>
